<?xml version="1.0" encoding="UTF-8" standalone="no"?>
<!-- Created with Inkscape (http://www.inkscape.org/) -->

<svg
   version="1.1"
   id="svg1"
   width="1365.3333"
   height="1242.859"
   viewBox="0 0 1365.3333 1242.8591"
   sodipodi:docname="Yugen.svg"
   xmlns:inkscape="http://www.inkscape.org/namespaces/inkscape"
   xmlns:sodipodi="http://sodipodi.sourceforge.net/DTD/sodipodi-0.dtd"
   xmlns="http://www.w3.org/2000/svg"
   xmlns:svg="http://www.w3.org/2000/svg">
  <defs
     id="defs1" />
  <sodipodi:namedview
     id="namedview1"
     pagecolor="#ffffff"
     bordercolor="#000000"
     borderopacity="0.25"
     inkscape:showpageshadow="2"
     inkscape:pageopacity="0.0"
     inkscape:pagecheckerboard="0"
     inkscape:deskcolor="#d1d1d1" />
  <g
     id="layer-MC0"
     inkscape:groupmode="layer"
     inkscape:label="Layer 1"
     transform="translate(-4.774149e-7,-63.456987)">
    <g
       id="g1"
       transform="matrix(1.5333286,0,0,1.5333286,-394.73806,-393.17235)"
       style="fill:#ffffff;fill-opacity:1;stroke-width:0;stroke-dasharray:none">
      <path
         id="path6"
         d="m 252.843,622.503 16.672,-40.847 18.716,-45.866 106.83,43.594 -21.54,52.792 -14.212,34.816 c -11.322,1.434 -22.484,2.528 -33.167,2.528 v 0 c -31.258,0 -58.396,-9.371 -73.299,-47.017"
         transform="matrix(1.3333333,0,0,-1.3333333,0,1365.3333)"
         style="fill:#ffffff;fill-opacity:1;stroke:none;stroke-width:0;stroke-dasharray:none" />
      <path
         id="path12"
         d="m 193.079,371.571 152.164,24.511 67.459,-165.299 c 18.069,-44.278 50.665,-51.417 81.461,-13.5 v 0 l 90.957,112.019 c -43.613,-22.623 -79.396,-21.917 -110.445,54.991 v 0 L 438.925,471.9 C 348.049,434.814 283.955,408.658 193.079,371.571"
         transform="matrix(1.3333333,0,0,-1.3333333,0,1365.3333)"
         style="fill:#ffffff;fill-opacity:1;stroke:none;stroke-width:0;stroke-dasharray:none" />
      <path
         id="path18"
         d="M 692.456,645.095 518.549,436.835 474.675,384.293 c 31.049,-76.908 66.832,-77.614 110.445,-54.991 v 0 l 53.82,66.277 205.936,253.597 c 32.271,39.744 13.689,81.926 -36.655,87.679 v 0 l -85.732,9.805 c 17.726,-25.036 9.063,-53.051 -30.033,-101.565"
         transform="matrix(1.3333333,0,0,-1.3333333,0,1365.3333)"
         style="fill:#ffffff;fill-opacity:1;stroke:none;stroke-width:0;stroke-dasharray:none" />
      <path
         id="path24"
         d="m 207.624,733.309 45.219,-110.806 c 19.997,50.512 62.016,50.119 106.466,44.489 v 0 l 227.651,-14.964 105.496,-6.933 c 39.096,48.514 47.759,76.529 30.033,101.565 v 0 l -66.141,7.56 -399.97,45.728 c -4.115,0.47 -8.009,0.7 -11.685,0.7 v 0 c -39.684,-10e-4 -53.61,-26.811 -37.069,-67.339"
         transform="matrix(1.3333333,0,0,-1.3333333,0,1365.3333)"
         style="fill:#ffffff;fill-opacity:1;stroke:none;stroke-width:0;stroke-dasharray:none" />
    </g>
  </g>
</svg>
