<?xml version="1.0" encoding="UTF-8" standalone="no"?>
<!DOCTYPE svg PUBLIC "-//W3C//DTD SVG 1.1//EN" "http://www.w3.org/Graphics/SVG/1.1/DTD/svg11.dtd">
<svg width="100%" height="100%" viewBox="0 0 1024 1024" version="1.1" xmlns="http://www.w3.org/2000/svg" xmlns:xlink="http://www.w3.org/1999/xlink" xml:space="preserve" xmlns:serif="http://www.serif.com/" style="fill-rule:evenodd;clip-rule:evenodd;stroke-linejoin:round;stroke-miterlimit:2;">
    <g transform="matrix(1,0,0,1,-1152,0)">
        <g transform="matrix(1,0,0,1,1152,0)">
            <rect id="Page-2" serif:id="Page 2" x="0" y="0" width="1024" height="1024" style="fill:none;"/>
            <clipPath id="_clip1">
                <rect id="Page-21" serif:id="Page 2" x="0" y="0" width="1024" height="1024"/>
            </clipPath>
            <g clip-path="url(#_clip1)">
                <g id="Layer-1" serif:id="Layer 1">
                    <g transform="matrix(1,0,0,1,254.864,694.643)">
                        <path d="M127.432,-662.165L-254.864,-441.453L-254.864,-294.298L382.297,73.557L509.728,0L-127.432,-367.868L127.432,-515.01L509.728,-294.298L509.728,-441.453L127.432,-662.165Z" style="fill:white;fill-rule:nonzero;"/>
                    </g>
                    <g transform="matrix(1,0,0,1,386.825,991.523)">
                        <path d="M0,-735.736L-127.418,-662.165L509.743,-294.298L254.878,-147.156L-127.418,-367.868L-127.418,-220.713L254.878,0L637.175,-220.713L637.175,-367.868L0,-735.736Z" style="fill:white;fill-rule:nonzero;"/>
                    </g>
                </g>
            </g>
        </g>
    </g>
</svg>
